<svg width="18" height="14" viewBox="0 0 18 14" fill="none" xmlns="http://www.w3.org/2000/svg">
<path d="M10.022 9.78479V12.8036C10.022 13.1861 10.357 13.5 10.774 13.5C10.962 13.5 11.149 13.4341 11.292 13.3087C13.067 11.7441 16.237 8.95186 17.688 7.67321C17.888 7.49771 18 7.2535 18 7C18 6.74557 17.888 6.50229 17.688 6.32679C16.237 5.04814 13.067 2.255 11.292 0.692214C11.149 0.565928 10.962 0.5 10.774 0.5C10.357 0.5 10.022 0.812929 10.022 1.19643V4.21521H1.002C0.471 4.21521 0 4.65164 0 5.14379V8.85621C0 9.34836 0.471 9.78479 1.002 9.78479H10.022Z" fill="#F8F8F8"/>
</svg>
