<svg width="64" height="64" viewBox="0 0 64 64" fill="none" xmlns="http://www.w3.org/2000/svg">
<path fill-rule="evenodd" clip-rule="evenodd" d="M32 64C49.6731 64 64 49.6731 64 32C64 14.3269 49.6731 0 32 0C14.3269 0 0 14.3269 0 32C0 49.6731 14.3269 64 32 64ZM26.2117 30.9522V17.9408C26.2117 17.4001 26.2117 17.2313 27.1065 17.2284H38.1609C40.1048 17.2284 41.1539 18.8019 41.8486 21.9661L42.5575 24.4379H44.4842C44.6701 17.4001 44.8387 14.4219 44.8387 14.4219C44.8387 14.4219 40.1076 14.9283 37.3004 14.9283H23.2359L15.8491 14.7766V16.7049L18.3018 17.2227C20.0771 17.5803 20.6002 17.9351 20.6002 19.5086C20.6002 19.5086 20.786 24.2663 20.786 32.1653C20.786 40.0872 20.6002 44.8391 20.6002 44.8391C20.6002 46.2467 20.0771 46.7702 18.3018 47.125L15.8491 47.6657V49.5768L23.4017 49.408H36.0655C38.8727 49.408 45.5505 49.5768 45.5505 49.5768C45.7192 47.8345 46.5968 40.0843 46.7826 39.206H45.0074L43.0978 43.4344C41.6742 46.7674 39.3958 46.9533 37.1118 46.9533H29.725C27.2723 46.9533 26.2089 46.055 26.2089 43.958V33.0464C26.2089 33.0464 31.4831 33.0464 33.2412 33.2324C34.6476 33.404 35.3566 33.7588 35.8797 35.5183L36.4028 37.9901H38.5182L38.3324 31.6618L38.6869 25.485H36.5915L35.8826 28.3116C35.5281 30.2427 35.1708 30.4287 33.244 30.7663C30.7913 30.9522 26.2117 30.9522 26.2117 30.9522Z" fill="#585858"/>
</svg>
