<svg width="20" height="19" viewBox="0 0 20 19" fill="none" xmlns="http://www.w3.org/2000/svg">
<path d="M0 1V17.002C0 17.387 0.22 17.737 0.567 17.904C0.913 18.07 1.325 18.023 1.625 17.783L6.35 14.002H19C19.552 14.002 20 13.554 20 13.002V1C20 0.448 19.552 0 19 0H1C0.448 0 0 0.448 0 1ZM9.998 6.002C10.412 6.002 10.748 6.338 10.748 6.752V10.252C10.748 10.666 10.412 11.002 9.998 11.002C9.584 11.002 9.248 10.666 9.248 10.252V6.752C9.248 6.338 9.584 6.002 9.998 6.002ZM10 3.002C10.552 3.002 11 3.45 11 4.002C11 4.554 10.552 5.002 10 5.002C9.448 5.002 9 4.554 9 4.002C9 3.45 9.448 3.002 10 3.002Z" fill="#FF0000"/>
</svg>
