<svg width="64" height="64" viewBox="0 0 64 64" fill="none" xmlns="http://www.w3.org/2000/svg">
<g clip-path="url(#clip0_12_3259)">
<path d="M46 19.4347V22.8187C46 23.6107 45.3573 24.256 44.5653 24.256H41.1813C40.384 24.256 39.7467 23.6107 39.7467 22.8187V19.4347C39.7467 18.6427 40.384 18 41.1813 18H44.5653C45.3573 18 46 18.6427 46 19.4347ZM32 39.176C35.9627 39.176 39.1813 35.9627 39.1813 31.9973C39.1813 28.032 35.9627 24.824 32 24.824C28.0347 24.824 24.824 28.0347 24.824 32C24.824 35.9653 28.0347 39.176 32 39.176ZM43.3627 30.4C43.4373 30.9227 43.4853 31.456 43.4853 31.9973C43.4853 38.344 38.344 43.4853 32 43.4853C25.656 43.4853 20.5147 38.344 20.5147 32C20.5147 31.456 20.5627 30.9253 20.6373 30.4027C20.7093 29.8853 20.8133 29.3813 20.952 28.8907H18V44.568C18 45.36 18.6427 46.0027 19.4347 46.0027H44.5653C45.3573 46.0027 46 45.36 46 44.568V28.8907H43.048C43.1813 29.3813 43.288 29.8853 43.3627 30.4ZM64 32C64 49.672 49.672 64 32 64C14.328 64 0 49.672 0 32C0 14.328 14.328 0 32 0C49.672 0 64 14.328 64 32ZM50.6667 17.64C50.6667 15.2613 48.7387 13.3333 46.36 13.3333H17.64C15.2613 13.3333 13.3333 15.2613 13.3333 17.64V46.3573C13.3333 48.7387 15.2613 50.6667 17.64 50.6667H46.36C48.7387 50.6667 50.6667 48.7387 50.6667 46.3573V17.64Z" fill="#585858"/>
</g>
<defs>
<clipPath id="clip0_12_3259">
<rect width="64" height="64" fill="white"/>
</clipPath>
</defs>
</svg>
