<svg viewBox="0 0 64 64" fill="none" xmlns="http://www.w3.org/2000/svg">
<path fill-rule="evenodd" clip-rule="evenodd" d="M32 0C14.3307 0 0 14.3253 0 32C0 49.672 14.3307 64 32 64C49.672 64 64 49.672 64 32C64 14.3253 49.672 0 32 0ZM32 14.6667C21.6907 14.6667 13.3333 22.4053 13.3333 31.9493C13.3333 37.3893 16.048 42.2427 20.2907 45.4107V52L26.6453 48.512C28.3413 48.9813 30.1387 49.2347 32 49.2347C42.3093 49.2347 50.6667 41.496 50.6667 31.9493C50.6667 22.4053 42.3093 14.6667 32 14.6667ZM33.856 37.9413L29.1013 32.872L19.8267 37.9413L30.0293 27.112L34.8987 32.1813L44.0587 27.112L33.856 37.9413Z" fill="#585858"/>
</svg>
