<svg viewBox="0 0 100 66" fill="none" xmlns="http://www.w3.org/2000/svg">
<path d="M28.4771 15.4528C28.6835 15.4528 28.7868 15.7337 28.7868 16.2955C28.7868 16.6009 28.6593 16.9733 28.4042 17.413C28.1491 17.8404 27.815 18.2374 27.402 18.6037C27.0011 18.9579 26.5516 19.251 26.0535 19.4831C25.5555 19.7152 25.0271 19.8311 24.4682 19.8311C23.9216 19.8311 23.4903 19.654 23.1745 19.2999C22.8707 18.9335 22.7189 18.5305 22.7189 18.0908C22.7189 17.6389 22.7918 17.1321 22.9376 16.5703C23.0834 16.0085 23.2413 15.4223 23.4114 14.8116C23.8729 13.1873 24.1098 12.0454 24.122 11.3859C24.122 11.105 24.0856 10.8913 24.0127 10.7447C23.9398 10.586 23.8001 10.5066 23.5936 10.5066C23.2291 10.5066 22.8404 10.7264 22.4274 11.1661C22.0143 11.6057 21.6256 12.1675 21.2612 12.8515C20.423 14.4147 19.9796 15.9413 19.931 17.4313C19.9553 17.6022 19.9796 17.7733 20.0039 17.9442C20.0282 18.1152 20.0403 18.2984 20.0403 18.4938C20.0403 18.8846 19.8459 19.2449 19.4572 19.5747C19.0806 19.8922 18.6554 20.051 18.1817 20.051C17.9023 20.051 17.6957 19.9167 17.5621 19.6479C17.4285 19.3671 17.3617 19.0251 17.3617 18.6221C17.3617 18.219 17.4528 17.6695 17.635 16.9733C17.8172 16.2772 18.0177 15.5383 18.2363 14.7567C18.8194 12.6927 19.1171 11.1539 19.1292 10.1402C19.1292 9.62724 19.0624 9.22421 18.9288 8.9311C18.8073 8.63799 18.5643 8.49144 18.1999 8.49144C17.5439 8.49144 16.894 8.96164 16.2501 9.90203C15.6063 10.8424 15.0293 12.3019 14.519 14.2804C14.3854 14.7933 14.2822 15.2391 14.2093 15.6177L14.1911 15.9658C14.4219 17.0893 14.5373 17.8221 14.5373 18.1641C14.5373 18.8725 14.2882 19.3488 13.7902 19.593C13.5594 19.7029 13.3346 19.8068 13.116 19.9044C12.9094 20.0021 12.6847 20.051 12.4417 20.051C11.8343 20.051 11.5306 19.4708 11.5306 18.3106C11.5306 17.1382 11.8526 14.8544 12.4964 11.4592C12.7272 10.2379 12.8426 9.55396 12.8426 9.40741C12.8426 8.41816 12.5936 7.92354 12.0955 7.92354C11.9255 7.92354 11.7675 7.97239 11.6218 8.07009C11.4881 8.16779 11.3484 8.27161 11.2026 8.38152C11.069 8.49144 10.9293 8.59525 10.7835 8.69295C10.6378 8.79065 10.4677 8.83951 10.2733 8.83951C10.0911 8.83951 10 8.67463 10 8.34488C10 7.67317 10.3098 7.12359 10.9293 6.69614C11.5246 6.25647 12.2474 6.03664 13.0977 6.03664C14.1911 6.03664 14.8349 6.54958 15.0293 7.57547C15.0779 7.8808 15.1143 8.20443 15.1386 8.5464C16.0375 6.8488 17.1734 6 18.5461 6C20.0403 6 20.8967 6.72056 21.1154 8.16169C21.1883 8.57693 21.2187 9.0227 21.2065 9.49901V9.64556C21.9961 8.5464 22.9316 7.99681 24.0127 7.99681C25.5433 7.99681 26.3087 8.925 26.3087 10.7814C26.3087 11.5874 26.1811 12.5339 25.926 13.6209C25.6831 14.6956 25.5009 15.4711 25.3793 15.9474C25.27 16.4115 25.2153 16.7718 25.2153 17.0283C25.2153 17.4923 25.3733 17.7244 25.6891 17.7244C26.0171 17.7244 26.7885 17.0893 28.0033 15.8192C28.222 15.5749 28.3799 15.4528 28.4771 15.4528ZM32.7806 18.4389C32.1732 19.2816 31.3593 19.7029 30.3389 19.7029C29.5128 19.7029 28.8507 19.532 28.3527 19.19C27.8667 18.8358 27.6238 18.2801 27.6238 17.5229C27.6238 17.2054 27.6663 16.9123 27.7514 16.6436C27.8485 16.3748 28.0003 16.0451 28.2069 15.6543L28.7354 11.3126C29.1119 11.0195 29.6221 10.873 30.266 10.873C30.8127 10.873 31.1224 11.2393 31.1953 11.9721C31.2196 12.192 31.2318 12.4545 31.2318 12.7599C31.2318 13.053 31.1831 13.3644 31.086 13.6941C30.6 15.3795 30.3632 16.5093 30.3753 17.0832C30.3753 17.5229 30.6304 17.7427 31.1407 17.7427C31.6509 17.7427 32.0274 17.5779 32.2704 17.2481C32.5133 16.9184 32.7198 16.5093 32.89 16.0207C33.2058 14.6651 33.4973 13.5476 33.7646 12.6683C34.044 11.7889 34.2202 11.2638 34.2931 11.0928C34.4145 10.7997 34.6453 10.647 34.9855 10.6348C35.3256 10.647 35.6475 10.8913 35.9513 11.3676C36.2549 11.8317 36.4068 12.192 36.4068 12.4484C36.3824 13.3033 35.854 15.4589 34.8215 18.9152C35.6111 18.2923 36.3946 17.529 37.1721 16.6252C37.4393 16.3077 37.6641 16.0451 37.8463 15.8375C38.0286 15.6177 38.1743 15.5078 38.2837 15.5078C38.4537 15.5078 38.5388 15.7032 38.5388 16.094C38.5388 16.8634 38.1075 17.7611 37.245 18.7869C36.3946 19.8128 35.3499 20.6128 34.1108 21.1868C33.9651 21.6753 33.8071 22.1394 33.6371 22.5791C33.4669 23.0187 33.2483 23.4034 32.9811 23.7332C32.398 24.4416 31.5111 24.7957 30.3207 24.7957C29.5189 24.7957 28.8325 24.5636 28.2616 24.0996C27.7027 23.6355 27.4234 23.0554 27.4234 22.3592C27.4234 21.9684 27.5509 21.657 27.806 21.4249C28.0732 21.1928 28.4316 20.9975 28.8811 20.8387C29.3427 20.6922 29.8772 20.5579 30.4847 20.4357C31.092 20.3258 31.742 20.1853 32.4344 20.0143C32.6045 19.2816 32.7198 18.7564 32.7806 18.4389ZM30.3025 23.3851C30.8734 23.3851 31.3896 22.8844 31.8513 21.8829C31.414 21.9684 31.0252 22.0295 30.6851 22.0661C30.3449 22.115 30.0534 22.1577 29.8105 22.1943C29.3245 22.2676 29.0876 22.3959 29.0998 22.5791C29.0998 22.8111 29.2334 23.0065 29.5007 23.1653C29.7801 23.3241 30.0473 23.3974 30.3025 23.3851ZM19.6941 32.8379C20.0099 32.6058 20.2954 32.325 20.5505 31.9952C20.8056 31.6532 21.0182 31.4823 21.1883 31.4823C21.3705 31.4823 21.4616 31.751 21.4616 32.2883C21.4616 32.8135 21.3098 33.3142 21.0061 33.7905C20.7145 34.2546 20.3258 34.6455 19.8399 34.963C18.8437 35.6225 17.6654 35.9522 16.3048 35.9522C14.6527 35.9522 13.3711 35.5369 12.46 34.7065C11.5489 33.8761 11.0933 32.7219 11.0933 31.2441C11.0933 29.4244 11.5306 27.6962 12.4053 26.0597C12.6969 25.5224 13.0248 25.0278 13.3893 24.5759C13.1099 24.2461 12.8851 23.9041 12.7151 23.55C12.5571 23.1836 12.4782 22.9088 12.4782 22.7256C12.4782 22.3959 12.5997 22.231 12.8426 22.231C13.0127 22.2432 13.2071 22.3592 13.4257 22.5791L13.9906 23.1286C14.1364 23.2752 14.2882 23.3974 14.4462 23.495C15.6488 22.4691 16.9426 21.9562 18.3274 21.9562C19.7245 21.9562 20.6295 22.347 21.0425 23.1286C21.1883 23.4217 21.2612 23.7821 21.2612 24.2095C21.2612 24.8567 20.9818 25.4002 20.423 25.8399C19.8642 26.2796 19.111 26.4994 18.1634 26.4994C17.228 26.4994 16.2562 26.304 15.2479 25.9132C14.3854 27.391 13.9542 28.9359 13.9542 30.548C13.9542 32.783 14.841 33.9004 16.6146 33.9004C17.7079 33.9004 18.7344 33.5463 19.6941 32.8379ZM16.1226 24.7774C16.7421 24.985 17.4163 25.0888 18.1452 25.0888C18.8741 25.0888 19.2385 24.8873 19.2385 24.4843C19.2385 24.008 18.9409 23.7698 18.3457 23.7698C17.5317 23.7698 16.7907 24.1056 16.1226 24.7774ZM26.6154 29.6503C26.6154 29.2107 26.3541 28.9908 25.8318 28.9908C25.3216 28.9908 24.8174 29.3939 24.3194 30.1999C23.8212 30.9937 23.5115 31.806 23.3901 32.6364C23.4143 32.9173 23.4386 33.1982 23.463 33.4791C23.4872 33.76 23.4994 34.0347 23.4994 34.3035C23.4994 34.9507 23.2868 35.3904 22.8616 35.6225C22.6672 35.7324 22.479 35.8362 22.2968 35.9339C22.1266 36.0316 21.9262 36.0804 21.6954 36.0804C21.4646 36.0804 21.258 35.9278 21.0758 35.6225C20.9058 35.305 20.8207 34.8164 20.8207 34.1569C20.8207 32.3127 20.9543 30.7129 21.2216 29.3572C21.6346 27.2566 22.4546 25.0095 23.6816 22.6157C23.8517 22.2859 24.1007 22.1271 24.4287 22.1394C24.7567 22.1394 25.0239 22.3653 25.2305 22.8172C25.437 23.2691 25.5341 23.6476 25.522 23.953C25.522 24.2584 25.4734 24.5575 25.3763 24.8507C25.2912 25.1315 25.1758 25.4125 25.03 25.6933C24.8963 25.9621 24.7385 26.2429 24.5562 26.536C24.3861 26.8169 24.2161 27.1223 24.0461 27.452L23.7727 28.771C24.2465 27.9772 24.8843 27.4459 25.686 27.1772C25.9776 27.0796 26.2994 27.0307 26.6518 27.0307C27.4778 27.0307 28.1034 27.2199 28.5287 27.5986C28.9538 27.965 29.1664 28.4901 29.1664 29.174C29.1664 29.8458 29.0753 30.5297 28.8931 31.2258C28.723 31.9219 28.5954 32.4226 28.5104 32.728C28.4376 33.0211 28.4011 33.2653 28.4011 33.4608C28.4011 33.6562 28.4678 33.7539 28.6015 33.7539C28.7838 33.7539 29.0085 33.6379 29.2758 33.4058C29.5429 33.1737 29.8102 32.9234 30.0775 32.6547C30.3447 32.3739 30.5877 32.1174 30.8064 31.8853C31.0371 31.6532 31.1951 31.5372 31.2802 31.5372C31.4502 31.5372 31.5353 31.7448 31.5353 32.1601C31.5353 33.015 31.1162 33.8394 30.278 34.6332C28.8687 35.4637 27.9698 35.8789 27.5811 35.8789C27.5447 35.8789 27.5203 35.8729 27.5082 35.8606C26.5363 35.8606 26.0505 35.0789 26.0505 33.5157C26.0505 32.844 26.1112 32.2273 26.2327 31.6655C26.3663 31.1036 26.4634 30.6945 26.5242 30.4381C26.5849 30.1816 26.6154 29.9191 26.6154 29.6503ZM41.8076 31.4823C42.0262 31.4823 42.1356 31.7631 42.1356 32.325C42.1356 32.6303 42.008 33.0028 41.7529 33.4425C41.4978 33.8699 41.1638 34.2668 40.7507 34.6332C40.3498 34.9874 39.9003 35.2805 39.4023 35.5125C38.9042 35.7446 38.4183 35.8606 37.9445 35.8606C37.3007 35.8606 36.8694 35.2927 36.6508 34.1569C36.3349 34.6821 35.9219 35.1156 35.4117 35.4576C34.9015 35.7873 34.2151 35.9522 33.3526 35.9522C32.5022 35.9522 31.8159 35.6835 31.2935 35.1462C30.7711 34.6088 30.516 33.9554 30.5282 33.186C30.5282 31.1098 31.2146 29.4732 32.5873 28.2764C33.1704 27.7757 33.711 27.4459 34.209 27.2871C34.7192 27.1283 35.2537 27.049 35.8125 27.049C36.3714 27.049 36.8269 27.1467 37.1792 27.3421C37.3492 26.988 37.5436 26.8108 37.7623 26.8108C38.1874 26.8108 38.5883 27.0001 38.9649 27.3787C39.3536 27.7451 39.5481 28.0932 39.5481 28.4229C39.378 28.826 39.1289 29.3083 38.8009 29.8702C38.7038 30.432 38.6552 31.2197 38.6552 32.2334C38.6552 33.247 38.7827 33.7539 39.0378 33.7539C39.3536 33.7539 40.119 33.1188 41.3338 31.8487C41.5525 31.6044 41.7104 31.4823 41.8076 31.4823ZM33.2068 32.5814C33.2068 33.5218 33.553 33.992 34.2455 33.992C34.9865 33.9798 35.5999 33.5829 36.0859 32.8013C36.2559 32.5326 36.3957 32.2028 36.505 31.812C36.505 30.4441 36.6265 29.2717 36.8694 28.2947C35.8854 28.4901 35.029 28.9665 34.3001 29.7236C33.5712 30.4808 33.2068 31.4334 33.2068 32.5814ZM43.8854 32.728L43.9948 34.963C43.9948 35.2561 43.843 35.5186 43.5392 35.7507C43.2355 35.9828 42.8225 36.0988 42.3001 36.0988C41.9964 36.0988 41.7839 35.94 41.6624 35.6225C41.553 35.305 41.4984 34.8408 41.4984 34.2302C41.4984 32.9478 41.5591 31.9463 41.6806 31.2258C41.8142 30.493 42.0693 29.7542 42.4459 29.0092C41.8871 28.4718 41.6077 28.0077 41.6077 27.6169C41.6077 26.7986 42.045 26.3895 42.9197 26.3895C43.3692 26.3895 43.7639 26.6276 44.1041 27.1039C44.347 27.4337 44.5232 27.8184 44.6325 28.2581C44.8026 28.3191 45.0152 28.3497 45.2703 28.3497C45.6226 28.3497 46.0296 28.2337 46.4912 28.0016L46.965 27.7634C47.1107 27.6902 47.2383 27.6535 47.3476 27.6535C47.6999 27.6535 48.0522 28.1725 48.4045 29.2107C48.2952 29.687 48.1736 30.145 48.0401 30.5846C47.9185 31.0243 47.7728 31.5556 47.6027 32.1784C47.4327 32.8013 47.3416 33.2226 47.3294 33.4425C47.3294 33.65 47.3962 33.7539 47.5298 33.7539C47.7121 33.7539 47.9368 33.6379 48.2041 33.4058C48.4713 33.1737 48.7385 32.9234 49.0058 32.6547C49.2731 32.3739 49.516 32.1174 49.7347 31.8853C49.9655 31.6532 50.1234 31.5372 50.2085 31.5372C50.3785 31.5372 50.4636 31.7448 50.4636 32.1601C50.4636 33.0028 50.0931 33.8332 49.352 34.6515C48.6232 35.4698 47.785 35.8729 46.8374 35.8606C46.2786 35.8606 45.8595 35.6347 45.5801 35.1828C45.3007 34.7309 45.155 34.1813 45.1428 33.5341C45.1428 32.2517 45.4283 31.0365 45.9992 29.8885C45.7319 29.9984 45.4283 30.0534 45.0881 30.0534C44.7601 30.0534 44.5232 30.0411 44.3774 30.0167C44.2681 30.4808 44.1588 30.951 44.0494 31.4273C43.9401 31.8914 43.8854 32.325 43.8854 32.728ZM59.5387 30.2366C59.5387 29.8335 59.3078 29.632 58.8462 29.632C58.5304 29.632 58.1781 29.9434 57.7894 30.5663C57.4007 31.1769 57.1212 31.8364 56.9512 32.5448V32.5814C56.9512 32.9967 57.0119 33.4241 57.1334 33.8638C57.267 34.3035 57.3338 34.6088 57.3338 34.7798C57.3338 35.1951 56.8176 35.6041 55.785 36.0072C55.627 36.0682 55.4874 36.0988 55.3659 36.0988C55.0621 36.0988 54.8496 35.94 54.7281 35.6225C54.6187 35.305 54.5641 34.8774 54.5641 34.3401C54.5641 33.7905 54.5763 33.2776 54.6005 32.8013C54.637 32.3127 54.6674 31.867 54.6916 31.464C54.7281 31.0487 54.7585 30.6885 54.7827 30.3831C54.8192 30.0656 54.8374 29.8091 54.8374 29.6137C54.8374 29.1984 54.6492 28.9908 54.2725 28.9908C53.8959 28.9908 53.4586 29.4366 52.9606 30.3282C52.4625 31.2075 52.2135 31.9097 52.2135 32.4349C52.2135 32.9478 52.2742 33.4241 52.3957 33.8638C52.5293 34.3035 52.5961 34.6088 52.5961 34.7798C52.5961 35.1951 52.0799 35.6041 51.0472 36.0072C50.8893 36.0682 50.7497 36.0988 50.6281 36.0988C50.3244 36.0988 50.1119 35.94 49.9904 35.6225C49.881 35.305 49.8264 34.8164 49.8264 34.1569C49.8264 32.4226 49.8932 31.1709 50.0268 30.4014C50.209 29.2656 50.6221 28.1909 51.2659 27.1772C51.4846 26.8352 51.7215 26.6643 51.9766 26.6643C52.3775 26.6643 52.7479 26.994 53.0881 27.6535C53.1853 27.8245 53.2581 27.9833 53.3068 28.1298C53.8899 27.3971 54.5763 27.0307 55.3659 27.0307C55.8883 27.0307 56.3559 27.2078 56.7689 27.5619C57.182 27.9039 57.3885 28.3374 57.3885 28.8626V29.0641C58.1296 28.1359 59.0345 27.6718 60.1036 27.6718C60.7596 27.6718 61.2576 27.8428 61.5978 28.1848C61.9379 28.5268 62.108 28.9481 62.108 29.4488C62.108 29.9495 62.0715 30.4014 61.9987 30.8045C61.9258 31.2075 61.8407 31.5861 61.7435 31.9403C61.6585 32.2944 61.5795 32.612 61.5067 32.8929C61.4338 33.1616 61.3973 33.3752 61.3973 33.5341C61.3973 33.6806 61.446 33.7539 61.5431 33.7539C61.7253 33.7539 61.95 33.6379 62.2173 33.4058C62.4846 33.1737 62.7518 32.9234 63.0191 32.6547C63.2864 32.3739 63.5293 32.1174 63.748 31.8853C63.9788 31.6532 64.1367 31.5372 64.2217 31.5372C64.3918 31.5372 64.4768 31.7448 64.4768 32.1601C64.4768 33.015 64.0455 33.8455 63.1831 34.6515C62.3327 35.4576 61.4216 35.8606 60.4498 35.8606C59.5751 35.8606 59.1378 35.0606 59.1378 33.4608C59.1378 33.0577 59.2046 32.5021 59.3382 31.7937C59.4718 31.0853 59.5387 30.5663 59.5387 30.2366ZM65.7443 35.8606C64.5294 35.8606 63.9221 34.7187 63.9221 32.4349C63.9221 31.1892 64.0739 30.0594 64.3776 29.0458C64.8514 27.4826 65.3859 26.7009 65.9812 26.7009C66.3334 26.7009 66.6128 26.9391 66.8194 27.4154C66.9894 27.7818 67.0683 28.1421 67.0563 28.4962C67.0563 28.9848 66.9105 29.8458 66.6189 31.0793C66.3395 32.154 66.1998 32.8196 66.1998 33.0761C66.1998 33.3325 66.2605 33.5097 66.3821 33.6073C66.5156 33.705 66.6675 33.7539 66.8376 33.7539C67.0198 33.7539 67.2445 33.6379 67.5118 33.4058C67.779 33.1737 68.0463 32.9234 68.3136 32.6547C68.5808 32.3739 68.8238 32.1174 69.0425 31.8853C69.2732 31.6532 69.4312 31.5372 69.5162 31.5372C69.6863 31.5372 69.7713 31.7448 69.7713 32.1601C69.7713 33.015 69.34 33.8515 68.4776 34.6699C67.6272 35.4759 66.7161 35.8729 65.7443 35.8606ZM66.4914 25.217C66.1634 24.7285 65.9994 24.2034 65.9994 23.6416C65.9994 23.0797 66.0844 22.6157 66.2545 22.2493C66.4367 21.8707 66.6068 21.5959 66.7647 21.4249C66.9226 21.2417 67.1048 21.1501 67.3114 21.1501C67.6514 21.1501 67.9612 21.4066 68.2407 21.9196C68.5201 22.4202 68.6598 22.8416 68.6598 23.1836C68.6598 23.8187 68.435 24.3194 67.9856 24.6858C67.5483 25.0399 67.0501 25.217 66.4914 25.217ZM71.284 26.6643C71.7213 26.6643 72.1344 27.0856 72.5231 27.9283C73.0941 27.3298 73.7986 27.0307 74.6368 27.0307C75.4872 27.0307 76.125 27.2199 76.5501 27.5986C76.9754 27.965 77.1879 28.4901 77.1879 29.174C77.1879 29.8458 77.0968 30.5297 76.9146 31.2258C76.7445 31.9219 76.617 32.4226 76.5319 32.728C76.459 33.0211 76.4226 33.2653 76.4226 33.4608C76.4226 33.6562 76.4894 33.7539 76.623 33.7539C76.8052 33.7539 77.0301 33.6379 77.2972 33.4058C77.5645 33.1737 77.8318 32.9234 78.099 32.6547C78.3663 32.3739 78.6092 32.1174 78.8279 31.8853C79.0587 31.6532 79.2167 31.5372 79.3017 31.5372C79.4718 31.5372 79.5568 31.7448 79.5568 32.1601C79.5568 33.015 79.1377 33.8394 78.2994 34.6332C76.8903 35.4637 75.9914 35.8789 75.6026 35.8789C75.5661 35.8789 75.5419 35.8729 75.5297 35.8606C74.5579 35.8606 74.072 35.0789 74.072 33.5157C74.072 32.844 74.1328 32.2273 74.2542 31.6655C74.3879 31.1036 74.485 30.6945 74.5457 30.4381C74.6065 30.1816 74.6368 29.9191 74.6368 29.6503C74.6368 29.2107 74.3817 28.9908 73.8715 28.9908C73.3735 28.9908 72.8937 29.3695 72.432 30.1266C71.9826 30.8717 71.6788 31.6472 71.5209 32.4532V32.5814C71.5209 32.9967 71.5817 33.4241 71.7031 33.8638C71.8368 34.3035 71.9035 34.6088 71.9035 34.7798C71.9035 35.1951 71.3873 35.6041 70.3547 36.0072C70.1968 36.0682 70.0571 36.0988 69.9356 36.0988C69.6319 36.0988 69.4193 35.94 69.2978 35.6225C69.1885 35.305 69.1338 34.8103 69.1338 34.1386C69.1338 32.4043 69.2006 31.1525 69.3342 30.3831C69.5165 29.2351 69.9295 28.1665 70.5733 27.1772C70.792 26.8352 71.0289 26.6643 71.284 26.6643ZM85.6267 27.4703C85.7968 26.933 86.0701 26.6643 86.4467 26.6643C86.7868 26.6765 87.1087 26.9207 87.4125 27.3971C87.7161 27.8611 87.868 28.2214 87.868 28.4779C87.8437 28.9786 87.6918 29.7786 87.4125 30.8777C87.133 31.9647 86.7383 33.3814 86.228 35.1278C87.0298 34.505 87.8194 33.6929 88.5969 32.6914C88.8641 32.3494 89.0889 32.0746 89.2711 31.867C89.4654 31.6472 89.6234 31.5372 89.7449 31.5372C89.9149 31.5372 90 31.7327 90 32.1235C90 32.8929 89.5687 33.7905 88.7062 34.8164C87.8558 35.8423 86.8112 36.6423 85.5721 37.2163C85.4263 37.7048 85.2683 38.1689 85.0983 38.6085C84.9281 39.0482 84.7095 39.4329 84.4423 39.7626C83.8592 40.471 82.9724 40.8252 81.7819 40.8252C80.9801 40.8252 80.2937 40.5931 79.7228 40.129C79.164 39.665 78.8846 39.0848 78.8846 38.3887C78.8846 38.0101 79.006 37.7109 79.249 37.491C79.5041 37.2712 79.8504 37.0941 80.2877 36.9598C80.725 36.8255 81.2352 36.7094 81.8183 36.6117C82.4135 36.514 83.0452 36.3919 83.7134 36.2453C83.7741 36.0377 83.8227 35.8362 83.8592 35.6408C83.9077 35.4332 83.9563 35.2255 84.005 35.0179C83.3368 35.6408 82.5168 35.9522 81.545 35.9522C80.5853 35.9522 79.8442 35.6835 79.3219 35.1462C78.7995 34.6088 78.5444 33.9554 78.5566 33.186C78.5566 31.1098 79.2429 29.4732 80.6157 28.2764C81.5632 27.4581 82.5472 27.049 83.5676 27.049C83.9199 27.049 84.2965 27.0917 84.6974 27.1772C85.1104 27.2628 85.4201 27.3604 85.6267 27.4703ZM81.2352 32.5814C81.2352 33.5218 81.5815 33.992 82.2739 33.992C82.6626 33.992 83.0574 33.8455 83.4583 33.5524C83.8592 33.2593 84.181 32.783 84.4241 32.1235C84.6063 31.2685 84.7946 30.4808 84.989 29.7603C85.1954 29.0397 85.3352 28.5389 85.4081 28.2581C84.3876 28.3924 83.4339 28.8504 82.5472 29.632C81.6726 30.4137 81.2352 31.3968 81.2352 32.5814ZM83.1485 37.9307C82.7112 38.0162 82.3286 38.0833 82.0006 38.1322C81.6726 38.1811 81.3992 38.2238 81.1806 38.2605C80.974 38.2971 80.8161 38.3398 80.7068 38.3887C80.6095 38.4376 80.561 38.5169 80.561 38.6268C80.561 38.8467 80.6946 39.0359 80.9619 39.1947C81.2413 39.3535 81.5146 39.4268 81.7819 39.4146C82.2435 39.4146 82.699 38.92 83.1485 37.9307ZM10.2733 48.6659C10.2733 48.5193 10.3705 48.446 10.5649 48.446C10.7592 48.446 11.3606 48.5803 12.3689 48.8491C12.5997 46.8462 13.2496 44.6722 14.3186 42.3274C14.6952 41.4724 15.1447 41.045 15.667 41.045C15.7642 41.045 15.8553 41.1489 15.9404 41.3564C16.0375 41.564 16.0861 41.8205 16.0861 42.1258C16.0861 42.4922 15.8918 43.4998 15.503 45.1485C15.1264 46.7973 14.8774 48.2323 14.7559 49.4536C15.5577 49.6368 16.2623 49.7284 16.8697 49.7284C17.4892 49.7284 18.0541 49.5696 18.5643 49.2521C19.0745 48.9223 19.5119 48.501 19.8763 47.9881C20.6295 46.9011 21.0061 45.5943 21.0061 44.0677C20.9939 41.2465 19.8763 39.8359 17.6532 39.8359C16.8636 39.8482 15.4666 40.2023 13.4622 40.8984C13.0734 41.0328 12.7333 41.1 12.4417 41.1C12.1502 41.1 12.0044 41.0144 12.0044 40.8435C12.0044 40.6114 12.1745 40.3366 12.5146 40.0191C12.8548 39.7016 13.2921 39.3963 13.8266 39.1031C15.1386 38.3948 16.4141 38.0406 17.6532 38.0406C19.3539 38.0406 20.751 38.4986 21.8443 39.4146C23.132 40.5015 23.7698 42.1502 23.7576 44.3608C23.7576 45.3012 23.6118 46.2294 23.3203 47.1454C23.0287 48.0613 22.5853 48.8796 21.9901 49.6002C21.3948 50.3085 20.6416 50.8825 19.7305 51.3222C18.8194 51.7618 17.7443 51.9817 16.5052 51.9817C16.0072 51.9817 15.3755 51.8718 14.6102 51.6519C14.5251 51.884 14.3125 52 13.9724 52C13.3407 52 12.9094 51.8962 12.6786 51.6886C12.46 51.4687 12.3324 51.1146 12.296 50.626C11.7129 50.2963 11.2269 49.9543 10.8382 49.6002C10.4616 49.246 10.2733 48.9346 10.2733 48.6659ZM31.9307 50.278C30.971 51.4138 29.817 51.9817 28.4685 51.9817C27.1323 51.9817 26.1301 51.6397 25.4619 50.9558C24.7937 50.2597 24.4657 49.3986 24.4779 48.3728C24.4657 46.9195 24.9213 45.6676 25.8446 44.6173C26.7678 43.567 27.9765 43.0418 29.4707 43.0418C30.151 43.0418 30.6976 43.1273 31.1107 43.2983C31.8274 43.5914 32.1858 43.8662 32.1858 44.1227C32.1858 44.3181 31.6816 44.4218 30.6734 44.4341C29.6772 44.4341 28.839 44.7822 28.1588 45.4783C27.4906 46.1622 27.1565 47.0294 27.1565 48.0796C27.1565 48.6292 27.3145 49.0933 27.6303 49.4719C27.9583 49.8383 28.4139 50.0215 28.997 50.0215C29.5923 50.0215 30.0842 49.8993 30.4729 49.6551C29.6105 49.0689 29.1792 48.2201 29.1792 47.1087C29.167 46.5225 29.3736 45.9912 29.7987 45.5149C30.2361 45.0264 30.7888 44.7822 31.4569 44.7822C32.1372 44.7699 32.6231 44.9531 32.9147 45.3317C33.2062 45.7104 33.352 46.1988 33.352 46.7973C33.352 47.3835 33.2123 48.0064 32.9329 48.6659H33.0422C33.5767 48.6536 34.0384 48.4644 34.4271 48.098C34.5729 47.9514 34.6944 47.8232 34.7916 47.7133C34.9009 47.6033 35.0102 47.5484 35.1195 47.5484C35.2896 47.5484 35.3747 47.7499 35.3747 48.1529C35.3747 48.898 35.156 49.4597 34.7187 49.8383C34.2813 50.2047 33.7954 50.3879 33.2609 50.3879C32.7385 50.3879 32.2951 50.3513 31.9307 50.278ZM31.7667 48.1529C31.9732 47.7133 32.0765 47.2859 32.0765 46.8706C32.0765 46.4553 31.9429 46.2477 31.6756 46.2477C31.5663 46.2477 31.4752 46.3271 31.4023 46.4859C31.3294 46.6447 31.2929 46.7973 31.2929 46.9438C31.2929 47.4324 31.4509 47.8354 31.7667 48.1529ZM38.5265 51.8901C36.7894 51.9023 35.6049 51.2489 34.9732 49.9299C34.7545 49.4659 34.6452 48.8857 34.6452 48.1896C34.6452 47.4812 34.7059 46.7301 34.8274 45.9363C35.0703 44.3486 35.5381 42.883 36.2305 41.5396C36.5828 40.8557 36.9776 40.2695 37.4149 39.781C38.3747 38.7062 39.4436 38.1749 40.622 38.1872C41.1444 38.1872 41.5513 38.3337 41.8429 38.6268C42.1466 38.9077 42.2984 39.3169 42.2984 39.8542C42.2984 40.3916 42.1405 40.9351 41.8247 41.4847C41.5089 42.022 41.1018 42.5838 40.6038 43.1701C40.1178 43.744 39.5773 44.3486 38.982 44.9837C38.3867 45.6188 37.8036 46.3087 37.2327 47.0538V47.7865C37.2327 48.4704 37.3785 48.9712 37.6701 49.2887C37.9616 49.6062 38.3018 49.765 38.6905 49.765C39.7352 49.765 40.6585 49.246 41.4602 48.2079C41.7882 47.7805 42.0373 47.5667 42.2073 47.5667C42.3774 47.5667 42.4624 47.7743 42.4624 48.1896C42.4624 48.6048 42.3471 49.0323 42.1162 49.4719C41.8975 49.8993 41.606 50.2963 41.2416 50.6627C40.8771 51.0168 40.458 51.3099 39.9842 51.542C39.5105 51.7741 39.0245 51.8901 38.5265 51.8901ZM39.5105 42.0526C39.7656 41.7351 39.966 41.448 40.1118 41.1916C40.2576 40.9351 40.3305 40.6725 40.3305 40.4038C40.3305 40.123 40.2333 39.9825 40.0389 39.9825C39.6138 39.9825 39.14 40.4221 38.6176 41.3015C38.1074 42.1808 37.7247 43.3349 37.4696 44.7638C37.8827 44.1287 38.2592 43.5975 38.5994 43.1701C38.9516 42.7426 39.2554 42.3701 39.5105 42.0526ZM45.4487 51.8901C43.7115 51.9023 42.5271 51.2489 41.8954 49.9299C41.6767 49.4659 41.5674 48.8857 41.5674 48.1896C41.5674 47.4812 41.6282 46.7301 41.7496 45.9363C41.9926 44.3486 42.4603 42.883 43.1527 41.5396C43.5051 40.8557 43.8998 40.2695 44.3371 39.781C45.2969 38.7062 46.3659 38.1749 47.5442 38.1872C48.0666 38.1872 48.4735 38.3337 48.7651 38.6268C49.0688 38.9077 49.2206 39.3169 49.2206 39.8542C49.2206 40.3916 49.0628 40.9351 48.7468 41.4847C48.431 42.022 48.0241 42.5838 47.526 43.1701C47.0401 43.744 46.4995 44.3486 45.9042 44.9837C45.309 45.6188 44.7259 46.3087 44.1549 47.0538V47.7865C44.1549 48.4704 44.3007 48.9712 44.5922 49.2887C44.8838 49.6062 45.224 49.765 45.6127 49.765C46.6575 49.765 47.5806 49.246 48.3824 48.2079C48.7104 47.7805 48.9595 47.5667 49.1295 47.5667C49.2996 47.5667 49.3846 47.7743 49.3846 48.1896C49.3846 48.6048 49.2692 49.0323 49.0384 49.4719C48.8197 49.8993 48.5282 50.2963 48.1637 50.6627C47.7993 51.0168 47.3802 51.3099 46.9064 51.542C46.4327 51.7741 45.9468 51.8901 45.4487 51.8901ZM46.4327 42.0526C46.6878 41.7351 46.8882 41.448 47.034 41.1916C47.1798 40.9351 47.2526 40.6725 47.2526 40.4038C47.2526 40.123 47.1555 39.9825 46.9611 39.9825C46.5359 39.9825 46.0622 40.4221 45.5398 41.3015C45.0296 42.1808 44.6469 43.3349 44.3918 44.7638C44.8049 44.1287 45.1815 43.5975 45.5216 43.1701C45.8739 42.7426 46.1775 42.3701 46.4327 42.0526ZM52.4621 42.9685C53.2759 42.9563 53.8834 43.109 54.2843 43.4265C54.6851 43.7319 54.8856 44.1776 54.8856 44.7638C54.8856 45.3378 54.7094 45.8324 54.3572 46.2477C54.017 46.6507 53.5979 46.9378 53.0998 47.1087C53.4521 47.4751 53.7679 47.8476 54.0474 48.2262C54.3389 48.6048 54.4847 49.0017 54.4847 49.417C54.4847 50.2353 54.1627 50.8703 53.5189 51.3222C52.875 51.7618 51.9761 51.9817 50.8221 51.9817C49.6801 51.9817 48.8237 51.7558 48.2528 51.3039C47.6818 50.8398 47.3963 50.3207 47.3963 49.7467C47.3963 49.1605 47.536 48.6292 47.8155 48.1529C48.107 47.6766 48.4168 47.4385 48.7448 47.4385C48.9391 47.4385 49.0788 47.5117 49.1639 47.6583C49.2489 47.7926 49.4068 48.1956 49.6377 48.8674C49.7226 49.1116 49.8624 49.3437 50.0568 49.5635C50.5062 50.0642 51.2168 50.3146 52.1887 50.3146C52.043 49.8506 51.8061 49.4536 51.4781 49.1239C51.1622 48.7819 50.8463 48.4521 50.5305 48.1346C50.2146 47.8171 49.9353 47.4812 49.6923 47.127C49.4493 46.7607 49.3279 46.3332 49.3279 45.8447C49.3279 44.9654 49.6559 44.2509 50.3119 43.7013C50.9314 43.2128 51.6481 42.9685 52.4621 42.9685ZM52.3892 46.3576C52.875 45.8324 53.1179 45.4111 53.1179 45.0936C53.1179 44.947 53.0634 44.8188 52.9541 44.7089C52.8568 44.5867 52.711 44.5257 52.5167 44.5257C52.3223 44.5257 52.1341 44.5501 51.9519 44.599C51.7817 44.6479 51.6421 44.6845 51.5328 44.7089C51.5328 45.1729 51.8181 45.7225 52.3892 46.3576Z" fill="#585858"/>
<path d="M68.1491 21.5753C67.9099 20.2148 65.7848 20.0428 65.4151 21.4427C65.0701 22.3992 65.5997 23.9685 66.5848 25.374C66.6158 25.4373 66.6704 25.4808 66.7331 25.4998C66.7961 25.519 66.868 25.5142 66.934 25.4805C68.6497 24.5478 70.2301 23.9571 70.5753 23.0002C71.1015 21.5425 69.2169 20.6232 68.1491 21.5753Z" fill="#D40000"/>
<defs>
<filter id="filter0_d_48_27" x="0" y="0" width="100" height="66" filterUnits="userSpaceOnUse" color-interpolation-filters="sRGB">
<feFlood flood-opacity="0" result="BackgroundImageFix"/>
<feColorMatrix in="SourceAlpha" type="matrix" values="0 0 0 0 0 0 0 0 0 0 0 0 0 0 0 0 0 0 127 0" result="hardAlpha"/>
<feOffset dy="4"/>
<feGaussianBlur stdDeviation="5"/>
<feComposite in2="hardAlpha" operator="out"/>
<feColorMatrix type="matrix" values="0 0 0 0 0.345098 0 0 0 0 0.345098 0 0 0 0 0.345098 0 0 0 0.1 0"/>
<feBlend mode="normal" in2="BackgroundImageFix" result="effect1_dropShadow_48_27"/>
<feBlend mode="normal" in="SourceGraphic" in2="effect1_dropShadow_48_27" result="shape"/>
</filter>
</defs>
</svg>
